<?xml version="1.0" encoding="UTF-8" standalone="no"?>
<svg
   viewBox="0 0 2228.833 2228.833"
   version="1.1"
   id="svg37"
   sodipodi:docname="icon.svg"
   xml:space="preserve"
   inkscape:version="1.2.2 (b0a8486541, 2022-12-01)"
   width="2228.833"
   height="2228.833"
   inkscape:export-filename="icon128x128.png"
   inkscape:export-xdpi="5.5131989"
   inkscape:export-ydpi="5.5131989"
   xmlns:inkscape="http://www.inkscape.org/namespaces/inkscape"
   xmlns:sodipodi="http://sodipodi.sourceforge.net/DTD/sodipodi-0.dtd"
   xmlns="http://www.w3.org/2000/svg"
   xmlns:svg="http://www.w3.org/2000/svg"><defs
     id="defs41" /><sodipodi:namedview
     id="namedview39"
     pagecolor="#505050"
     bordercolor="#eeeeee"
     borderopacity="1"
     inkscape:showpageshadow="0"
     inkscape:pageopacity="0"
     inkscape:pagecheckerboard="0"
     inkscape:deskcolor="#505050"
     showgrid="false"
     inkscape:zoom="0.17512832"
     inkscape:cx="1116.3243"
     inkscape:cy="1998.5346"
     inkscape:window-width="1280"
     inkscape:window-height="1371"
     inkscape:window-x="20"
     inkscape:window-y="20"
     inkscape:window-maximized="0"
     inkscape:current-layer="svg37" /><path
     fill="#5059c9"
     d="m 1554.637,777.5 h 575.713 c 54.391,0 98.483,44.092 98.483,98.483 0,0 0,0 0,0 v 524.398 c 0,199.901 -162.051,361.952 -361.952,361.952 v 0 h -1.711 c -199.901,0.028 -361.975,-162 -362.004,-361.901 0,-0.017 0,-0.034 0,-0.052 V 828.971 c 10e-4,-28.427 23.045,-51.471 51.471,-51.471 z"
     id="path2" /><circle
     fill="#5059c9"
     cx="1943.75"
     cy="440.58301"
     r="233.25"
     id="circle4" /><circle
     fill="#7b83eb"
     cx="1218.083"
     cy="336.91699"
     r="336.91699"
     id="circle6" /><path
     fill="#7b83eb"
     d="M 1667.323,777.5 H 717.01 c -53.743,1.33 -96.257,45.931 -95.01,99.676 v 598.105 c -7.505,322.519 247.657,590.16 570.167,598.053 322.51,-7.893 577.671,-275.534 570.167,-598.053 V 877.176 c 1.245,-53.745 -41.268,-98.346 -95.011,-99.676 z"
     id="path8" /><path
     opacity="0.1"
     d="m 1244,777.5 v 838.145 c -0.258,38.435 -23.549,72.964 -59.09,87.598 -11.316,4.787 -23.478,7.254 -35.765,7.257 H 667.613 c -6.738,-17.105 -12.958,-34.21 -18.142,-51.833 -18.144,-59.477 -27.402,-121.307 -27.472,-183.49 V 877.02 c -1.246,-53.659 41.198,-98.19 94.855,-99.52 z"
     id="path10" /><path
     opacity="0.2"
     d="m 1192.167,777.5 v 889.978 c 0,12.287 -2.47,24.449 -7.257,35.765 -14.634,35.541 -49.163,58.833 -87.598,59.09 H 691.975 c -8.812,-17.105 -17.105,-34.21 -24.362,-51.833 -7.257,-17.623 -12.958,-34.21 -18.142,-51.833 -18.144,-59.476 -27.402,-121.307 -27.472,-183.49 V 877.02 c -1.246,-53.659 41.198,-98.19 94.855,-99.52 z"
     id="path12" /><path
     opacity="0.2"
     d="m 1192.167,777.5 v 786.312 c -0.395,52.223 -42.632,94.46 -94.855,94.855 H 649.472 C 631.328,1599.191 622.07,1537.36 622,1475.177 V 877.02 c -1.246,-53.659 41.198,-98.19 94.855,-99.52 z"
     id="path14" /><path
     opacity="0.2"
     d="m 1140.333,777.5 v 786.312 c -0.395,52.223 -42.632,94.46 -94.855,94.855 H 649.472 C 631.328,1599.191 622.07,1537.36 622,1475.177 V 877.02 c -1.246,-53.659 41.198,-98.19 94.855,-99.52 z"
     id="path16" /><path
     opacity="0.1"
     d="m 1244,509.522 v 163.275 c -8.812,0.518 -17.105,1.037 -25.917,1.037 -8.812,0 -17.105,-0.518 -25.917,-1.037 -17.496,-1.161 -34.848,-3.937 -51.833,-8.293 C 1035.37,639.647 948.654,566.035 907.083,466.501 899.93,449.786 894.377,432.43 890.496,414.668 h 258.648 c 52.305,0.198 94.657,42.549 94.856,94.854 z"
     id="path18" /><path
     opacity="0.2"
     d="m 1192.167,561.355 v 111.442 c -17.496,-1.161 -34.848,-3.937 -51.833,-8.293 -104.963,-24.857 -191.679,-98.469 -233.25,-198.003 h 190.228 c 52.304,0.198 94.656,42.55 94.855,94.854 z"
     id="path20" /><path
     opacity="0.2"
     d="m 1192.167,561.355 v 111.442 c -17.496,-1.161 -34.848,-3.937 -51.833,-8.293 -104.963,-24.857 -191.679,-98.469 -233.25,-198.003 h 190.228 c 52.304,0.198 94.656,42.55 94.855,94.854 z"
     id="path22" /><path
     opacity="0.2"
     d="M 1140.333,561.355 V 664.503 C 1035.37,639.646 948.654,566.034 907.083,466.5 h 138.395 c 52.305,0.199 94.656,42.551 94.855,94.855 z"
     id="path24" /><linearGradient
     id="a"
     gradientUnits="userSpaceOnUse"
     x1="198.099"
     y1="1683.0726"
     x2="942.23438"
     y2="394.26071"
     gradientTransform="matrix(1,0,0,-1,0,2075.3333)"><stop
       offset="0"
       stop-color="#5a62c3"
       id="stop26" /><stop
       offset=".5"
       stop-color="#4d55bd"
       id="stop28" /><stop
       offset="1"
       stop-color="#3940ab"
       id="stop30" /></linearGradient><path
     fill="url(#a)"
     d="m 95.01,466.5 h 950.312 c 52.473,0 95.01,42.538 95.01,95.01 v 950.312 c 0,52.473 -42.538,95.01 -95.01,95.01 H 95.01 C 42.537,1606.832 0,1564.294 0,1511.822 V 561.51 C 0,509.038 42.538,466.5 95.01,466.5 Z"
     id="path33"
     style="fill:url(#a)" /><style
     type="text/css"
     id="style270">
	.st0{fill:#16ADE1;}
	.st1{fill:#1B3954;}
</style><g
     id="g358"
     transform="matrix(0.77070292,0,0,0.77070292,255.88664,1528.1839)"><g
       id="Layer_1" /><g
       id="Layer_2"><g
         id="g321"><g
           id="g438"
           transform="matrix(2.2181708,0,0,2.2181708,-198.98454,-1188.8022)"><g
             id="g275"
             style="fill:#00ff00"><path
               class="st0"
               d="m 257.95,498.5 c -1.37,0 -2.74,-0.03 -4.12,-0.09 -21.61,-0.98 -42.02,-10.03 -57.47,-25.47 -15.45,-15.44 -24.51,-35.85 -25.52,-57.46 -1.81,-38.47 21.51,-73.14 57.26,-86.1 v -53.13 c 0,-3.87 3.13,-7 7,-7 h 41.92 c 3.87,0 7,3.13 7,7 0,3.87 -3.13,7 -7,7 H 242.1 v 51.19 c 0,3.1 -2.04,5.83 -5.01,6.71 -32.36,9.58 -53.85,39.88 -52.26,73.67 1.73,37.33 32.32,67.9 69.64,69.59 20.25,0.94 39.39,-6.24 53.98,-20.18 14.6,-13.95 22.64,-32.74 22.64,-52.92 0,-4.3 -0.37,-8.56 -1.11,-12.74 l -30.13,30.13 c -13.98,13.98 -36.96,14.21 -51.21,0.5 -6.99,-6.73 -10.89,-15.89 -10.99,-25.78 -0.1,-10.04 3.9,-19.85 10.95,-26.9 l 17.9,-17.9 c 2.1,-2.1 3.32,-4.71 3.51,-7.54 V 305.2 c 0,-3.87 3.13,-7 7,-7 3.87,0 7,3.13 7,7 v 46.1 c 0,0.13 0,0.26 -0.01,0.39 -0.35,6.4 -2.98,12.22 -7.6,16.84 l -17.9,17.9 c -4.41,4.41 -6.91,10.56 -6.85,16.87 0.06,6.1 2.44,11.72 6.7,15.83 8.79,8.45 22.97,8.31 31.6,-0.32 l 38.75,-38.75 c 1.7,-1.7 4.17,-2.41 6.51,-1.87 2.35,0.54 4.25,2.24 5.05,4.52 3.2,9.17 4.83,18.8 4.83,28.62 0,24.04 -9.58,46.43 -26.97,63.04 -16.39,15.64 -37.62,24.13 -60.17,24.13 z"
               id="path273"
               style="fill:#00ff00" /></g><g
             id="g281"
             style="fill:#008000"><g
               id="g279"
               style="fill:#008000"><path
                 class="st1"
                 d="M 328.62,102.91 H 183.37 c -3.87,0 -7,-3.13 -7,-7 V 20.5 c 0,-3.87 3.13,-7 7,-7 3.87,0 7,3.13 7,7 V 88.91 H 321.62 V 20.5 c 0,-3.87 3.13,-7 7,-7 3.87,0 7,3.13 7,7 v 75.41 c 0,3.86 -3.13,7 -7,7 z"
                 id="path277"
                 style="fill:#008000" /></g></g><g
             id="g287"
             style="fill:#008000"><g
               id="g285"
               style="fill:#008000"><path
                 class="st1"
                 d="M 338.48,283.26 H 173.51 c -3.87,0 -7,-3.13 -7,-7 v -22.3 c 0,-3.87 3.13,-7 7,-7 3.87,0 7,3.13 7,7 v 15.3 H 331.48 V 231.95 H 173.51 c -3.87,0 -7,-3.13 -7,-7 0,-3.87 3.13,-7 7,-7 h 164.97 c 3.87,0 7,3.13 7,7 v 51.31 c 0,3.86 -3.13,7 -7,7 z"
                 id="path283"
                 style="fill:#008000" /></g></g><g
             id="g315"><g
               id="g313"><g
                 id="g291"
                 style="fill:#008000"><path
                   class="st1"
                   d="m 169.38,141.34 c -1.79,0 -3.58,-0.68 -4.95,-2.05 -2.73,-2.73 -2.73,-7.17 0,-9.9 l 38.43,-38.44 c 2.73,-2.73 7.17,-2.73 9.9,0 2.73,2.73 2.73,7.17 0,9.9 l -38.43,38.44 c -1.37,1.37 -3.16,2.05 -4.95,2.05 z"
                   id="path289"
                   style="fill:#008000" /></g><g
                 id="g295"
                 style="fill:#008000"><path
                   class="st1"
                   d="m 155.69,231.95 c -1.79,0 -3.58,-0.68 -4.95,-2.05 -2.73,-2.73 -2.73,-7.17 0,-9.9 l 40.72,-40.72 c 2.73,-2.73 7.17,-2.73 9.9,0 2.73,2.73 2.73,7.17 0,9.9 l -40.72,40.72 c -1.36,1.37 -3.16,2.05 -4.95,2.05 z"
                   id="path293"
                   style="fill:#008000" /></g><g
                 id="g299"
                 style="fill:#008000"><path
                   class="st1"
                   d="m 214.1,173.55 c -0.46,0 -0.92,-0.04 -1.37,-0.13 -0.45,-0.09 -0.89,-0.23 -1.31,-0.4 -0.42,-0.18 -0.83,-0.4 -1.21,-0.65 -0.38,-0.25 -0.74,-0.55 -1.06,-0.87 -0.33,-0.32 -0.62,-0.68 -0.87,-1.06 -0.26,-0.38 -0.47,-0.79 -0.65,-1.21 -0.17,-0.42 -0.31,-0.86 -0.4,-1.31 -0.09,-0.45 -0.13,-0.91 -0.13,-1.37 0,-0.46 0.04,-0.92 0.13,-1.37 0.09,-0.44 0.23,-0.88 0.4,-1.31 0.18,-0.42 0.39,-0.82 0.65,-1.2 0.25,-0.39 0.54,-0.75 0.87,-1.07 0.32,-0.32 0.68,-0.61 1.06,-0.87 0.38,-0.25 0.79,-0.47 1.21,-0.64 0.42,-0.18 0.86,-0.31 1.31,-0.4 0.9,-0.18 1.83,-0.18 2.74,0 0.44,0.09 0.88,0.22 1.31,0.4 0.42,0.17 0.82,0.39 1.2,0.64 0.39,0.26 0.74,0.55 1.07,0.87 0.32,0.32 0.61,0.68 0.87,1.07 0.25,0.38 0.47,0.78 0.64,1.2 0.18,0.43 0.31,0.87 0.4,1.31 0.09,0.45 0.14,0.91 0.14,1.37 0,0.46 -0.05,0.92 -0.14,1.37 -0.09,0.45 -0.22,0.89 -0.4,1.31 -0.17,0.42 -0.39,0.83 -0.64,1.21 -0.26,0.38 -0.55,0.74 -0.87,1.06 -0.33,0.32 -0.68,0.62 -1.07,0.87 -0.38,0.25 -0.78,0.47 -1.2,0.65 -0.43,0.17 -0.87,0.31 -1.31,0.4 -0.46,0.09 -0.92,0.13 -1.37,0.13 z"
                   id="path297"
                   style="fill:#008000" /></g><g
                 id="g303"><path
                   class="st1"
                   d="m 231.07,156.58 c -1.79,0 -3.58,-0.68 -4.95,-2.05 -2.73,-2.73 -2.73,-7.17 0,-9.9 l 53.67,-53.67 c 2.73,-2.73 7.17,-2.73 9.9,0 2.73,2.73 2.73,7.17 0,9.9 l -53.67,53.67 c -1.37,1.37 -3.16,2.05 -4.95,2.05 z"
                   id="path301"
                   style="fill:#008000" /></g><g
                 id="g307"
                 style="fill:#008000"><path
                   class="st1"
                   d="m 267.78,196.79 c -1.79,0 -3.58,-0.68 -4.95,-2.05 -2.73,-2.73 -2.73,-7.17 0,-9.9 l 93.88,-93.88 c 2.73,-2.73 7.17,-2.73 9.9,0 2.73,2.73 2.73,7.17 0,9.9 l -93.88,93.88 c -1.37,1.36 -3.16,2.05 -4.95,2.05 z"
                   id="path305"
                   style="fill:#008000" /></g><g
                 id="g311"
                 style="fill:#008000"><path
                   class="st1"
                   d="m 309.52,231.95 c -1.79,0 -3.58,-0.68 -4.95,-2.05 -2.73,-2.73 -2.73,-7.17 0,-9.9 l 56.66,-56.66 c 2.74,-2.73 7.17,-2.73 9.9,0 2.73,2.73 2.73,7.17 0,9.9 l -56.66,56.66 c -1.36,1.37 -3.15,2.05 -4.95,2.05 z"
                   id="path309"
                   style="fill:#008000" /></g></g></g><g
             id="g319"><path
               class="st0"
               d="M 366.18,231.95 H 145.81 c -3.87,0 -7,-3.13 -7,-7 V 95.91 c 0,-3.87 3.13,-7 7,-7 h 220.37 c 3.87,0 7,3.13 7,7 v 129.04 c 0,3.87 -3.13,7 -7,7 z m -213.37,-14 H 359.18 V 102.91 H 152.81 Z"
               id="path317"
               style="fill:#00ff00" /></g></g></g></g></g></svg>
